<?xml version="1.0" encoding="UTF-8"?>
<svg width="23px" height="26px" viewBox="0 0 23 26" version="1.1" xmlns="http://www.w3.org/2000/svg" xmlns:xlink="http://www.w3.org/1999/xlink">
    <!-- Generator: Sketch 49.1 (51147) - http://www.bohemiancoding.com/sketch -->
    <title>businessman_copy</title>
    <desc>Created with Sketch.</desc>
    <defs></defs>
    <g id="Page-1" stroke="none" stroke-width="1" fill="none" fill-rule="evenodd">
        <g id="businessman-copy" fill="#FFFFFF" fill-rule="nonzero">
            <path d="M20.0192172,17.2491121 C17.2055308,16.1385084 15.5237872,15 15.5237872,15 L13.3569252,22.0989346 L13.060464,23.0588534 L12.0902273,20.2125824 C14.3217717,16.9923896 11.923131,16.8361238 11.5026951,16.8361238 L11.4973049,16.8361238 L11.4919147,16.8361238 L11.4865245,16.8361238 L11.4811343,16.8361238 C11.0660886,16.8417047 8.66744786,16.9923896 10.8989923,20.2125824 L9.92875557,23.0588534 L9.63229435,22.0989346 L7.46543239,15 C7.46543239,15 5.78368877,16.1385084 2.97000234,17.2491121 C-0.129364893,18.4155251 0.0646824467,21.0553019 0,26 L11.4865245,26 L11.5134755,26 L23,26 C22.9245371,21.0553019 23.1131943,18.4155251 20.0192172,17.2491121 Z" id="Shape"></path>
            <path d="M5.95634054,12.5316426 C5.6709333,13.1410675 5.18793644,13.8987309 4.41404375,14.2775626 C4.16156812,14.4038398 4.21645413,14.7826715 4.49637276,14.826594 C5.34161726,14.9583616 6.55459801,14.8101231 7.68524974,13.953634 L7.70171555,13.9646147 C10.5722537,15.6611218 14.3319451,15.2713095 16.8018154,12.8061583 C19.7327282,9.87433044 19.7327282,5.12520849 16.8018154,2.19887092 C13.8709027,-0.732956972 9.12875172,-0.732956972 6.19783897,2.19887092 C3.37669823,5.02089252 3.27241481,9.52295032 5.87950013,12.4712492 L5.95634054,12.5316426 Z M11.8126774,2.86868927 C12.4877753,2.87417959 13.0256582,3.42321103 13.0201696,4.10950033 C13.014681,4.784809 12.4658209,5.33933075 11.8071888,5.33384044 C11.1266024,5.32835012 10.5777423,4.77382837 10.5832309,4.09302938 C10.5887195,3.40674008 11.1375796,2.86868927 11.8126774,2.86868927 Z M9.43611335,6.15189728 C9.45257916,6.02012974 9.53490817,5.93228471 9.71054339,5.89934282 C9.8038496,5.88287188 9.89715581,5.87738156 9.99046202,5.87738156 C10.3636869,5.87738156 10.7424003,5.87738156 11.1156252,5.87738156 C11.5108044,5.87738156 11.9114723,5.87738156 12.3066515,5.87738156 C12.5920587,5.87738156 12.7622054,6.01463942 12.767694,6.30013577 C12.7731826,6.53621929 12.7347623,6.77779312 12.6908535,7.01387664 C12.5371727,7.88683663 12.3725147,8.75979662 12.2133453,9.63275661 C12.1584593,9.92374327 12.1035733,10.2092396 12.0651531,10.5002263 C12.0486873,10.6374841 12.0706417,10.7857226 12.1035733,10.9229805 C12.1474821,11.1041609 12.2846971,11.2084768 12.4713095,11.1865156 C12.6249903,11.1700446 12.7786712,11.1151415 12.9268634,11.0602384 C13.0476126,11.0163158 13.151896,10.9339611 13.2726452,10.8845483 C13.4482804,10.8131742 13.5964727,10.9394514 13.5525638,11.1206318 C13.5251208,11.2249478 13.4592576,11.3347541 13.3824172,11.4116185 C12.9378406,11.8618243 12.4054463,12.1308497 11.7687686,12.13634 C11.4723842,12.1418303 11.1705112,12.1308497 10.8796153,12.0869271 C10.3911299,12.0155531 9.77091799,11.4116185 9.8587356,10.7637614 C9.91911021,10.3245362 9.98497342,9.87982076 10.0618138,9.44608592 C10.1935402,8.68293222 10.3307553,7.91977852 10.4624817,7.15662482 C10.4734589,7.10721199 10.4734589,7.05779916 10.4734589,7.00838633 C10.4734589,6.68994809 10.3746641,6.57465149 10.0563252,6.53072897 C9.91911021,6.51425803 9.78189519,6.5032774 9.65565738,6.45386457 C9.49099936,6.39896143 9.42513615,6.2726842 9.43611335,6.15189728 Z" id="Shape"></path>
        </g>
    </g>
</svg>