<?xml version="1.0" encoding="UTF-8"?>
<svg width="23px" height="24px" viewBox="0 0 23 24" version="1.1" xmlns="http://www.w3.org/2000/svg" xmlns:xlink="http://www.w3.org/1999/xlink">
    <!-- Generator: Sketch 49.1 (51147) - http://www.bohemiancoding.com/sketch -->
    <title>calendar_copy</title>
    <desc>Created with Sketch.</desc>
    <defs></defs>
    <g id="Page-1" stroke="none" stroke-width="1" fill="none" fill-rule="evenodd">
        <g id="calendar-copy" fill="#FFFFFF" fill-rule="nonzero">
            <path d="M5.66844002,12.4800033 C3.41561979,12.4777485 1.37578426,13.832417 0.473927197,15.9303735 C-0.428246789,18.0283301 -0.0206600125,20.4701479 1.51143523,22.1485454 C1.60794395,22.2580656 1.71031603,22.3621098 1.81775918,22.4603559 C3.6789982,24.2170281 6.46269543,24.5009754 8.62994145,23.154843 C10.7973459,21.8085495 11.81869,19.1612202 11.1291837,16.6768827 C10.4399944,14.1922232 8.20840924,12.4772653 5.66844002,12.4800033 Z M6.07317434,18.2399618 C6.07317434,18.4672163 5.89204226,18.651468 5.66844002,18.651468 L3.23955882,18.651468 C3.01595657,18.651468 2.83482449,18.4672163 2.83482449,18.2399618 C2.83482449,18.0128684 3.01595657,17.8286168 3.23955882,17.8286168 L5.26370573,17.8286168 L5.26370573,14.1257057 C5.26370573,13.8986123 5.44483777,13.7143606 5.66844002,13.7143606 C5.89204226,13.7143606 6.07317434,13.8986123 6.07317434,14.1257057 L6.07317434,18.2399618 Z" id="Shape"></path>
            <path d="M23,6.72 L1.57534247,6.72 L1.57534247,13.1239724 C1.63598757,13.075351 1.69889072,13.0323832 1.76227779,12.9858618 C1.82582609,12.9390172 1.88598732,12.8929803 1.94776146,12.8492049 C2.07550328,12.7610079 2.2064709,12.6787877 2.33969661,12.6015749 C2.38485785,12.5747605 2.42808362,12.5452 2.47389003,12.5191931 C2.65308342,12.4180736 2.83743806,12.3263229 3.02517982,12.2424873 C3.07630884,12.2200342 3.12872813,12.2014579 3.18050227,12.1802971 C3.3214699,12.1221453 3.46356653,12.066901 3.60808253,12.0181181 C3.67824372,11.9946958 3.74905012,11.9743426 3.81985651,11.9535049 C3.95130801,11.9137678 4.08404984,11.8785536 4.21840454,11.8472162 C4.29211414,11.8302553 4.36598502,11.8139405 4.44033982,11.7990794 C4.58179129,11.7714573 4.72388792,11.7502965 4.86679104,11.7317202 C4.93324259,11.723482 4.9985651,11.7128208 5.06501665,11.706198 C5.27404871,11.6860064 5.48404854,11.6732453 5.69549992,11.6732453 C9.33388367,11.6776067 12.2824293,14.6299437 12.2877519,18.2736417 C12.2877519,18.4854113 12.2748487,18.6957272 12.2546874,18.9049123 C12.2480745,18.9714639 12.2374293,19.0370462 12.2292035,19.1029517 C12.2109778,19.246716 12.1879132,19.389511 12.1619455,19.5305293 C12.1471068,19.605319 12.1306553,19.678655 12.1137198,19.7524755 C12.0829134,19.887517 12.0471069,20.0211048 12.0074296,20.1537233 C11.9869457,20.2238286 11.9663006,20.2939338 11.9432361,20.3632315 C11.8942039,20.5108726 11.8380749,20.6557676 11.7783975,20.7993703 C11.7582362,20.8479918 11.7409782,20.8979054 11.7193653,20.9463653 C11.6354944,21.1361665 11.5427526,21.3217678 11.441301,21.5030077 C11.4185591,21.5441986 11.391785,21.5821588 11.3680753,21.6227036 C11.285656,21.7617834 11.2008174,21.8982787 11.108882,22.0307357 C11.067753,22.0909875 11.022753,22.1488163 10.9790434,22.2074528 C10.9353338,22.2657661 10.8877532,22.3378098 10.8374306,22.4 L21.7640334,22.4 C22.4466134,22.4 23,21.8457806 23,21.1621733 L23,6.72 Z" id="Shape"></path>
            <path d="M23,3.75992172 C23,3.097248 22.4466134,2.56 21.7640334,2.56 L20.9400019,2.56 L20.9400019,3.75992172 C20.9400019,3.98086512 20.755486,4.15999998 20.5279056,4.15999998 C20.3004864,4.15999998 20.1159704,3.98086512 20.1159704,3.75992172 L20.1159704,2.56 L16.8198445,2.56 L16.8198445,3.75992172 C16.8198445,3.98086512 16.6353285,4.15999998 16.4079094,4.15999998 C16.1803289,4.15999998 15.995813,3.98086512 15.995813,3.75992172 L15.995813,2.56 L12.699687,2.56 L12.699687,3.75992172 C12.699687,3.98086512 12.515171,4.15999998 12.2877519,4.15999998 C12.0601714,4.15999998 11.8756555,3.98086512 11.8756555,3.75992172 L11.8756555,2.56 L8.57952954,2.56 L8.57952954,3.75992172 C8.57952954,3.98086512 8.39517486,4.15999998 8.16759441,4.15999998 C7.94001397,4.15999998 7.75549801,3.98086512 7.75549801,3.75992172 L7.75549801,2.56 L4.45953336,2.56 L4.45953336,3.75992172 C4.45953336,3.98086512 4.2750174,4.15999998 4.04743696,4.15999998 C3.81985651,4.15999998 3.63550183,3.98086512 3.63550183,3.75992172 L3.63550183,2.56 L2.81147035,2.56 C2.12856774,2.56 1.57534247,3.097248 1.57534247,3.75992172 L1.57534247,5.76 L23,5.76 L23,3.75992172 Z" id="Shape"></path>
            <path d="M12.445298,0 C12.1842518,0 11.9726027,0.191077183 11.9726027,0.426583131 L11.9726027,2.56 L12.9178082,2.56 L12.9178082,0.426583131 C12.9178082,0.191077183 12.7061592,7.59544081e-17 12.445298,0 Z" id="Shape"></path>
            <path d="M16.5411884,0 C16.2801422,0 16.0684932,0.191077183 16.0684932,0.426583131 L16.0684932,2.56 L17.0136986,2.56 L17.0136986,0.426583131 C17.0136986,0.191077183 16.8020496,7.59544081e-17 16.5411884,0 Z" id="Shape"></path>
            <path d="M21.109589,0.426583131 C21.109589,0.191077183 20.89794,0 20.6368938,0 C20.3760326,0 20.1643836,0.191077183 20.1643836,0.426583131 L20.1643836,2.56 L21.109589,2.56 L21.109589,0.426583131 Z" id="Shape"></path>
            <path d="M8.34940757,0 C8.08836138,0 7.87671233,0.191077183 7.87671233,0.426583131 L7.87671233,2.56 L8.82191781,2.56 L8.82191781,0.426583131 C8.82191781,0.191077183 8.61045375,7.59544081e-17 8.34940757,0 Z" id="Shape"></path>
            <path d="M4.25333216,0 C3.99228598,0 3.78082192,0.191077183 3.78082192,0.426583131 L3.78082192,2.56 L4.7260274,2.56 L4.7260274,0.426583131 C4.7260274,0.191077183 4.51437834,7.59544081e-17 4.25333216,0 Z" id="Shape"></path>
        </g>
    </g>
</svg>