<?xml version="1.0" encoding="UTF-8"?>
<svg width="220px" height="50px" viewBox="0 0 220 50" version="1.1" xmlns="http://www.w3.org/2000/svg" xmlns:xlink="http://www.w3.org/1999/xlink">
    <!-- Generator: Sketch 49.1 (51147) - http://www.bohemiancoding.com/sketch -->
    <title>Artboard 4</title>
    <desc>Created with Sketch.</desc>
    <defs>
        <linearGradient x1="31.8092903%" y1="85.7870101%" x2="75.6642756%" y2="11.0624704%" id="linearGradient-1">
            <stop stop-color="#0041DD" offset="0%"></stop>
            <stop stop-color="#07D5FC" offset="100%"></stop>
        </linearGradient>
        <linearGradient x1="81.3882739%" y1="30.632247%" x2="19.0205379%" y2="79.1704828%" id="linearGradient-2">
            <stop stop-color="#0041DD" offset="0%"></stop>
            <stop stop-color="#07D5FC" offset="100%"></stop>
        </linearGradient>
        <linearGradient x1="81.5120692%" y1="38.8349227%" x2="0%" y2="50%" id="linearGradient-3">
            <stop stop-color="#0041DD" offset="0%"></stop>
            <stop stop-color="#07D5FC" offset="100%"></stop>
        </linearGradient>
        <linearGradient x1="50%" y1="0%" x2="50%" y2="100%" id="linearGradient-4">
            <stop stop-color="#000000" offset="0%"></stop>
            <stop stop-color="#000000" offset="100%"></stop>
        </linearGradient>
        <linearGradient x1="100%" y1="50%" x2="0%" y2="50%" id="linearGradient-5">
            <stop stop-color="#0041DD" offset="0%"></stop>
            <stop stop-color="#07D5FC" offset="100%"></stop>
        </linearGradient>
    </defs>
    <g id="Artboard-4" stroke="none" stroke-width="1" fill="none" fill-rule="evenodd">
        <g id="Group" transform="translate(4.000000, 3.000000)">
            <path d="M20.9957627,19.9749999 C18.5574363,23.2488751 14.6852557,24.341431 6.86010346,19.298127 C5.84117272,20.4618037 5.59899676,22.3201571 6.13357559,24.8731872 C6.4802792,27.4977331 9.20463354,31.8981801 14.3066335,38.0745325 C14.9233733,38.8211409 14.8370279,39.9223003 14.1114536,40.5636536 C14.1101942,40.5647668 14.1089331,40.5658783 14.1076705,40.5669879 C13.384943,41.2021077 12.2841904,41.1310876 11.6490706,40.4083602 L7.97655078,36.2292574 C-1.53747078,26.7673686 -2.54061382,17.5450405 4.96712165,8.56227316 C7.23291317,11.7984896 10.1082336,16.6915163 14.6492434,18.8667511 C16.4164607,19.7132836 18.6053229,20.263466 20.9957627,19.9749999 Z M6.16183243,7.26818827 C6.12562388,7.22029984 6.09208378,7.17045106 6.06136488,7.11886898 C5.59989904,6.34399191 5.85396904,5.34173795 6.62884611,4.88027211 C7.52407944,4.34712999 8.67619794,4.56389755 9.31645783,5.38593799 L17.3815565,15.7408538 C16.6137017,16.1574149 15.8806036,16.4236392 15.1822622,16.5395268 C14.4839207,16.6554144 13.8138038,16.6554144 13.1719114,16.5395268 L6.16183243,7.26818827 Z M9.42385353,3.48238027 C9.38715281,3.43599309 9.35290885,3.38771401 9.3212626,3.33774174 C8.82112036,2.54797216 9.05590971,1.50229203 9.84567929,1.00214979 C10.7435758,0.43353332 11.9274039,0.647783128 12.5690571,1.4950281 L17.1350695,7.52403386 L20.4211679,11.8630292 L18.505714,14.9612251 L9.42385353,3.48238027 Z M15.6562008,2.82028534 C15.6258415,2.78048777 15.5972308,2.73938611 15.5704504,2.69709731 C15.0613504,1.89318267 15.3003449,0.828774026 16.1042595,0.319674059 C17.0040042,-0.250112813 18.189716,-0.0402941454 18.839292,0.80365413 L26,10.1070574 C24.0641997,9.99182335 22.3638427,10.0344628 21.7454875,10.8026245 L15.6562008,2.82028534 Z" id="Combined-Shape" fill="url(#linearGradient-1)"></path>
            <path d="M31.3890632,7 C34.4891199,10.954581 37.1561342,15.0865707 37.7879514,19.4965182 C38.7222395,26.0176466 36.4025771,31.2500041 34.0860845,34.5608556 L28.7650954,27.8494651 C30.1376085,26.7288644 31.349665,23.9803749 31.3890632,21.1292569 C31.4354117,17.7751692 30.2600808,14.3921171 30.0048902,13.3241974 C29.3965588,10.778456 29.3233637,8.00702827 31.3890632,7 Z M13,32.8469586 C14.0086217,33.2250926 14.6611711,33.269016 15.6071529,33.3263511 C16.4441003,33.3770778 17.5826951,33.4534924 18.3514409,33.5596427 L23.3914507,40.1616805 C23.3940706,40.1651125 23.3966779,40.168554 23.3992725,40.1720051 C23.9827852,40.9481526 23.8266239,42.050375 23.0504764,42.6338878 C22.2623755,43.2263872 21.145823,43.0838147 20.5318941,42.3122903 L13,32.8469586 Z M19.8843211,33.2538708 C21.5565775,33.2177183 22.712187,32.546655 23.6993126,32.1595395 L28.8694113,38.9114195 C28.8725545,38.9155244 28.8756796,38.9196431 28.8787864,38.9237755 C29.4614435,39.6987849 29.3055111,40.7993911 28.5305018,41.3820482 C27.7436646,41.9735974 26.6283469,41.8279823 26.0197604,41.0542473 L19.8843211,33.2538708 Z M24.9098756,31.5237543 L27.6808712,29.1348954 L32.4352697,35.0722824 C32.4385884,35.0764268 32.4418882,35.0805861 32.4451692,35.0847603 C33.0461954,35.8494071 32.9135547,36.9565038 32.1489079,37.5575299 C31.3728043,38.1675613 30.2512969,38.044635 29.6257613,37.2809726 L24.9098756,31.5237543 Z" id="Combined-Shape" fill="url(#linearGradient-2)"></path>
            <circle id="Oval-8" fill="url(#linearGradient-3)" cx="23" cy="14" r="1"></circle>
        </g>
        <g id="Group-2" transform="translate(48.000000, 16.000000)">
            <path d="M11,13.2146667 C10.8533326,15.7382348 9.63601144,17 7.348,17 L3.674,17 C2.67666168,17 1.81500363,16.6297815 1.089,15.8893333 C0.36299637,15.1488852 0,14.2573385 0,13.2146667 L0,3.78533333 C0,2.75777264 0.35566311,1.87000374 1.067,1.122 C1.77833689,0.37399626 2.6473282,0 3.674,0 L7.348,0 C9.65067818,0 10.8679993,1.26176516 11,3.78533333 L9.174,3.78533333 C9.0273326,2.51599365 8.41867202,1.88133333 7.348,1.88133333 L5.5,1.88133333 C5.00133084,1.88133333 4.57233513,2.06644259 4.213,2.43666667 C3.85366487,2.80689074 3.674,3.2564418 3.674,3.78533333 L3.674,13.2146667 C3.674,13.728447 3.85366487,14.1742203 4.213,14.552 C4.57233513,14.9297797 5.00133084,15.1186667 5.5,15.1186667 L7.348,15.1186667 C8.43333876,15.1186667 9.04199934,14.4840063 9.174,13.2146667 L11,13.2146667 Z M15,17 L15,3.78533333 C15,2.74266145 15.3629964,1.85111481 16.089,1.11066667 C16.8150036,0.37021852 17.6766617,0 18.674,0 L22.348,0 C23.3453383,0 24.2033297,0.37399626 24.922,1.122 C25.6406703,1.87000374 26,2.75777264 26,3.78533333 L26,17 L22.348,17 L22.348,9.452 L18.674,9.452 L18.674,17 L15,17 Z M18,7 L21,7 L21,3.68 C21,3.213331 20.8532949,2.8166683 20.5598802,2.49 C20.2664656,2.1633317 19.9101817,2 19.491018,2 C19.0838303,2 18.7335344,2.1633317 18.4401198,2.49 C18.1467051,2.8166683 18,3.213331 18,3.68 L18,7 Z M30,17 L30,0 L37.348,0 C38.3453383,0 39.2033297,0.37399626 39.922,1.122 C40.6406703,1.87000374 41,2.75777264 41,3.78533333 L41,4.80533333 C41,5.65155979 40.7213361,6.46377389 40.164,7.242 C39.6066639,8.02022611 38.6680066,8.40933333 37.348,8.40933333 L39.174,8.40933333 C39.6726692,8.40933333 40.1016649,8.59444259 40.461,8.96466667 C40.8203351,9.33489074 41,9.7844418 41,10.3133333 L41,17 L37.348,17 L37.348,11.3333333 C37.348,10.819553 37.1683351,10.3775574 36.809,10.0073333 C36.4496649,9.63710926 36.0133359,9.452 35.5,9.452 L33.674,9.452 L33.674,17 L30,17 Z M34,7 L35.491018,7 C35.9101817,7 36.2664656,6.8366683 36.5598802,6.51 C36.8532949,6.1833317 37,5.7933356 37,5.34 L37,3.68 C37,3.213331 36.8532949,2.8166683 36.5598802,2.49 C36.2664656,2.1633317 35.9101817,2 35.491018,2 L34,2 L34,7 Z M45,17 L45,0 L53,0 L53,1.88133333 L48.2038369,1.88133333 L48.2038369,7.548 L51.4076739,7.548 L51.4076739,9.452 L48.2038369,9.452 L48.2038369,15.1186667 L53,15.1186667 L53,17 L45,17 Z M98,13.2146667 C97.8533326,15.7382348 96.6360114,17 94.348,17 L90.674,17 C89.6766617,17 88.8150036,16.6297815 88.089,15.8893333 C87.3629964,15.1488852 87,14.2573385 87,13.2146667 L87,3.78533333 C87,2.75777264 87.3556631,1.87000374 88.067,1.122 C88.7783369,0.37399626 89.6473282,0 90.674,0 L94.348,0 C96.6506782,0 97.8679993,1.26176516 98,3.78533333 L96.174,3.78533333 C96.0273326,2.51599365 95.418672,1.88133333 94.348,1.88133333 L92.5,1.88133333 C92.0013308,1.88133333 91.5723351,2.06644259 91.213,2.43666667 C90.8536649,2.80689074 90.674,3.2564418 90.674,3.78533333 L90.674,13.2146667 C90.674,13.728447 90.8536649,14.1742203 91.213,14.552 C91.5723351,14.9297797 92.0013308,15.1186667 92.5,15.1186667 L94.348,15.1186667 C95.4333388,15.1186667 96.0419993,14.4840063 96.174,13.2146667 L98,13.2146667 Z M101,17 L101,0 L104.674,0 L104.674,7.548 L108.348,7.548 L108.348,0 L112,0 L112,17 L108.348,17 L108.348,9.452 L104.674,9.452 L104.674,17 L101,17 Z M119.674,0 L123.348,0 C124.345338,0 125.20333,0.37399626 125.922,1.122 C126.64067,1.87000374 127,2.75777264 127,3.78533333 L127,13.2146667 C127,14.2422274 126.64067,15.1299963 125.922,15.878 C125.20333,16.6260037 124.345338,17 123.348,17 L119.674,17 C118.676662,17 117.815004,16.6297815 117.089,15.8893333 C116.362996,15.1488852 116,14.2573385 116,13.2146667 L116,3.78533333 C116,2.74266145 116.362996,1.85111481 117.089,1.11066667 C117.815004,0.37021852 118.676662,0 119.674,0 Z M119,3.86986301 L119,13.130137 C119,13.6347057 119.146705,14.0724867 119.44012,14.4434932 C119.733534,14.8144996 120.08383,15 120.491018,15 C120.910182,15 121.266466,14.8144996 121.55988,14.4434932 C121.853295,14.0724867 122,13.6347057 122,13.130137 L122,3.86986301 C122,3.35045402 121.853295,2.90896301 121.55988,2.54537671 C121.266466,2.18179042 120.910182,2 120.491018,2 C120.08383,2 119.733534,2.18179042 119.44012,2.54537671 C119.146705,2.90896301 119,3.35045402 119,3.86986301 Z M134.674,0 L138.348,0 C139.345338,0 140.20333,0.37399626 140.922,1.122 C141.64067,1.87000374 142,2.75777264 142,3.78533333 L142,13.2146667 C142,14.2422274 141.64067,15.1299963 140.922,15.878 C140.20333,16.6260037 139.345338,17 138.348,17 L134.674,17 C133.676662,17 132.815004,16.6297815 132.089,15.8893333 C131.362996,15.1488852 131,14.2573385 131,13.2146667 L131,3.78533333 C131,2.74266145 131.362996,1.85111481 132.089,1.11066667 C132.815004,0.37021852 133.676662,0 134.674,0 Z M134,3.86986301 L134,13.130137 C134,13.6347057 134.146705,14.0724867 134.44012,14.4434932 C134.733534,14.8144996 135.08383,15 135.491018,15 C135.910182,15 136.266466,14.8144996 136.55988,14.4434932 C136.853295,14.0724867 137,13.6347057 137,13.130137 L137,3.86986301 C137,3.35045402 136.853295,2.90896301 136.55988,2.54537671 C136.266466,2.18179042 135.910182,2 135.491018,2 C135.08383,2 134.733534,2.18179042 134.44012,2.54537671 C134.146705,2.90896301 134,3.35045402 134,3.86986301 Z M154,3.78533333 L152.407674,3.78533333 C152.266986,2.51599365 151.761795,1.88133333 150.892086,1.88133333 C150.329334,1.88133333 149.907276,2.03999841 149.625899,2.35733333 C149.344523,2.67466825 149.203837,3.15066349 149.203837,3.78533333 C149.203837,4.25378012 149.357313,4.69955344 149.664269,5.12266667 L153.059952,9.61066667 C153.686654,10.4417819 154,11.3333286 154,12.2853333 L154,13.2146667 C154,14.2422274 153.686654,15.1299963 153.059952,15.878 C152.43325,16.6260037 151.678661,17 150.796163,17 L149.203837,17 C148.142281,17 147.342928,16.6864476 146.805755,16.0593333 C146.268582,15.4322191 146,14.4840063 146,13.2146667 L147.611511,13.2146667 L147.611511,13.532 C147.611511,14.0457803 147.777776,14.4386653 148.110312,14.7106667 C148.442847,14.982668 148.807352,15.1186667 149.203837,15.1186667 C149.76659,15.1186667 150.172661,14.9562238 150.422062,14.6313333 C150.671464,14.3064428 150.796163,13.8342253 150.796163,13.2146667 C150.796163,12.7311087 150.642687,12.2853354 150.335731,11.8773333 L146.940048,7.38933333 C146.313346,6.57332925 146,5.68178261 146,4.71466667 L146,3.78533333 C146,2.75777264 146.313346,1.87000374 146.940048,1.122 C147.56675,0.37399626 148.321339,0 149.203837,0 L150.796163,0 C152.804167,0 153.872102,1.26176516 154,3.78533333 Z M160,17 L160,0 L168,0 L168,1.88133333 L163.203837,1.88133333 L163.203837,7.548 L166.407674,7.548 L166.407674,9.452 L163.203837,9.452 L163.203837,15.1186667 L168,15.1186667 L168,17 L160,17 Z" id="Care-u-choose" fill="url(#linearGradient-4)"></path>
            <path d="M72.348,0 L76,0 L76,13.2146667 C76,14.2422274 75.6406703,15.1299963 74.922,15.878 C74.2033297,16.6260037 73.3453383,17 72.348,17 L68.674,17 C67.6766617,17 66.8150036,16.6297815 66.089,15.8893333 C65.3629964,15.1488852 65,14.2573385 65,13.2146667 L65,0 L68.674,0 L68.674,13.2146667 C68.674,13.728447 68.8536649,14.1742203 69.213,14.552 C69.5723351,14.9297797 70.0013308,15.1186667 70.5,15.1186667 C71.0133359,15.1186667 71.4496649,14.9297797 71.809,14.552 C72.1683351,14.1742203 72.348,13.728447 72.348,13.2146667 L72.348,0 Z" id="Path" fill="url(#linearGradient-5)"></path>
        </g>
    </g>
</svg>