<?xml version="1.0" encoding="UTF-8"?>
<svg width="591px" height="137px" viewBox="0 0 591 137" version="1.1" xmlns="http://www.w3.org/2000/svg" xmlns:xlink="http://www.w3.org/1999/xlink">
    <!-- Generator: Sketch 49.1 (51147) - http://www.bohemiancoding.com/sketch -->
    <title>group_2</title>
    <desc>Created with Sketch.</desc>
    <defs>
        <linearGradient x1="31.8092903%" y1="85.7870101%" x2="75.6642756%" y2="11.0624704%" id="linearGradient-1">
            <stop stop-color="#0041DD" offset="0%"></stop>
            <stop stop-color="#07D5FC" offset="100%"></stop>
        </linearGradient>
        <linearGradient x1="81.3882739%" y1="30.632247%" x2="19.0205379%" y2="79.1704828%" id="linearGradient-2">
            <stop stop-color="#0041DD" offset="0%"></stop>
            <stop stop-color="#07D5FC" offset="100%"></stop>
        </linearGradient>
        <linearGradient x1="81.5120692%" y1="38.8349227%" x2="0%" y2="50%" id="linearGradient-3">
            <stop stop-color="#0041DD" offset="0%"></stop>
            <stop stop-color="#07D5FC" offset="100%"></stop>
        </linearGradient>
        <linearGradient x1="100%" y1="50%" x2="0%" y2="50%" id="linearGradient-4">
            <stop stop-color="#0041DD" offset="0%"></stop>
            <stop stop-color="#07D5FC" offset="100%"></stop>
        </linearGradient>
    </defs>
    <g id="Page-1" stroke="none" stroke-width="1" fill="none" fill-rule="evenodd">
        <g id="Group-2">
            <g id="Group">
                <path d="M65.4098761,63.3374279 C57.8135515,73.7186336 45.7502196,77.183044 21.3718608,61.191116 C18.1974996,64.8810451 17.4430284,70.7737404 19.108447,78.8692019 C20.1887732,87.1930609 28.6792917,101.150367 44.5800117,120.741112 C46.5055808,123.113544 46.2341195,126.578818 43.9626055,128.62246 C43.9354029,128.646934 43.9079511,128.671129 43.8802544,128.695042 C41.6333579,130.634991 38.2392497,130.38616 36.2993015,128.139264 L24.8500236,114.878424 C-4.78981281,84.8755049 -7.91498921,55.632214 15.4744944,27.1485516 C22.5333064,37.4103443 31.4910354,52.9257544 45.6380276,59.8232562 C51.1435891,62.5075456 57.9627366,64.2521313 65.4098761,63.3374279 Z M19.1738411,23.0146357 C19.0767585,22.8839479 18.985872,22.7487693 18.9014825,22.6095474 C17.4140653,20.1556745 18.1975323,16.9606276 20.6514052,15.4732104 C23.4288135,13.7896818 27.0284034,14.468325 29.0021302,17.0476017 L54.1502339,49.9112772 C51.7580707,51.2321601 49.4741881,52.0763369 47.2985859,52.4438076 C45.1229838,52.8112783 43.0353119,52.8112783 41.0355703,52.4438076 L19.1738411,23.0146357 Z M29.3378426,11.0134772 C29.2405671,10.8883359 29.1488596,10.7589641 29.0629874,10.6257393 C27.4504084,8.12393189 28.1712704,4.78856268 30.6730778,3.17598364 C33.4580508,1.38088578 37.1577315,2.05134775 39.1356637,4.70958683 L53.3823318,23.8563749 L63.6197922,37.6149945 L57.6524168,47.4391345 L29.3378426,11.0134772 Z M48.7534122,8.91223127 C48.6759576,8.80888727 48.6021768,8.70284009 48.5322079,8.59428802 C46.8909204,6.04794141 47.6246158,2.65319323 50.1709624,1.01190574 C52.9617545,-0.786942933 56.6674213,-0.130239959 58.670103,2.5180884 L81,32.0469432 C74.9692374,31.681545 69.6719714,31.8167515 67.7455573,34.252533 L48.7534122,8.91223127 Z" id="Combined-Shape" fill="url(#linearGradient-1)"></path>
                <path d="M99.1094398,23 C108.905619,35.523063 117.333384,48.60793 119.329927,62.5730124 C122.282277,83.2236202 114.952144,99.7930471 107.632027,110.277597 L90.8177015,89.024482 C95.1548428,85.4758497 98.9849415,76.7721447 99.1094398,67.7434437 C99.255901,57.1219767 95.5418553,46.4087877 94.7354531,43.0269817 C92.8131258,34.9653238 92.5818292,26.1889796 99.1094398,23 Z M41,104.85016 C44.1872444,106.047606 46.2493008,106.186699 49.2386032,106.368263 C51.8833569,106.5289 55.4813166,106.770885 57.9105534,107.107033 L73.8389375,128.016423 C73.8449261,128.024284 73.8508939,128.032161 73.8568406,128.040054 C75.7084483,130.497704 75.2171546,133.991046 72.7595055,135.842654 C70.270559,137.717841 66.7404943,137.267063 64.8026453,134.826586 L41,104.85016 Z M62.7544548,106.138738 C68.0387849,106.024253 71.6905108,103.899182 74.8098277,102.673294 L91.1492866,124.057176 C91.1569293,124.067178 91.164538,124.077206 91.1721125,124.08726 C93.0210066,126.541307 92.530433,130.029531 90.0763856,131.878425 C87.5914384,133.750599 84.0652874,133.290207 82.1443302,130.842775 L62.7544548,106.138738 Z M78.6352068,100.659938 L87.391553,93.0950837 L102.417148,111.899267 C102.425249,111.909404 102.433313,111.919569 102.441343,111.929763 C104.348569,114.351053 103.931839,117.860008 101.510549,119.767235 C99.0595174,121.697889 95.5136533,121.309217 93.5390433,118.893457 L78.6352068,100.659938 Z" id="Combined-Shape" fill="url(#linearGradient-2)"></path>
                <circle id="Oval-8" fill="url(#linearGradient-3)" cx="74" cy="44" r="3"></circle>
            </g>
            <path d="M173.230798,80.7511106 C172.867719,86.814532 169.854207,89.8461972 164.190173,89.8461972 L155.095087,89.8461972 C152.626149,89.8461972 150.493091,88.9566667 148.695849,87.177579 C146.898607,85.3984913 146,83.2563566 146,80.7511106 L146,58.0950866 C146,55.6261485 146.880454,53.4930907 148.641387,51.695849 C150.402321,49.8986074 152.553533,49 155.095087,49 L164.190173,49 C169.890515,49 172.904027,52.0316652 173.230798,58.0950866 L168.710486,58.0950866 C168.347407,55.0452219 166.840651,53.5203125 164.190173,53.5203125 L159.615399,53.5203125 C158.38093,53.5203125 157.31894,53.9650777 156.429396,54.8546216 C155.539852,55.7441655 155.095087,56.8243096 155.095087,58.0950866 L155.095087,80.7511106 C155.095087,81.9855796 155.539852,83.056647 156.429396,83.9643448 C157.31894,84.8720426 158.38093,85.3258847 159.615399,85.3258847 L164.190173,85.3258847 C166.876959,85.3258847 168.383714,83.8009753 168.710486,80.7511106 L173.230798,80.7511106 Z M185.711336,89.8461972 L185.711336,58.0950866 C185.711336,55.5898406 186.609944,53.4477059 188.407185,51.6686182 C190.204427,49.8895305 192.337485,49 194.806423,49 L203.901509,49 C206.370447,49 208.494428,49.8986074 210.273516,51.695849 C212.052604,53.4930907 212.942134,55.6261485 212.942134,58.0950866 L212.942134,89.8461972 L203.901509,89.8461972 L203.901509,71.7104856 L194.806423,71.7104856 L194.806423,89.8461972 L185.711336,89.8461972 Z M194.806423,67.1357116 L203.901509,67.1357116 L203.901509,58.0950866 C203.901509,56.8243096 203.456744,55.7441655 202.5672,54.8546216 C201.677656,53.9650777 200.597512,53.5203125 199.326735,53.5203125 C198.092266,53.5203125 197.030276,53.9650777 196.140732,54.8546216 C195.251188,55.7441655 194.806423,56.8243096 194.806423,58.0950866 L194.806423,67.1357116 Z M225.422672,89.8461972 L225.422672,49 L243.612845,49 C246.081784,49 248.205765,49.8986074 249.984852,51.695849 C251.76394,53.4930907 252.65347,55.6261485 252.65347,58.0950866 L252.65347,60.5458584 C252.65347,62.5791015 251.96363,64.5306225 250.58393,66.40048 C249.204229,68.2703375 246.880558,69.2052522 243.612845,69.2052522 L248.133158,69.2052522 C249.367627,69.2052522 250.429617,69.6500175 251.319161,70.5395613 C252.208705,71.4291052 252.65347,72.5092494 252.65347,73.7800263 L252.65347,89.8461972 L243.612845,89.8461972 L243.612845,76.2307981 C243.612845,74.9963291 243.16808,73.9343386 242.278536,73.0447948 C241.388992,72.1552509 240.308848,71.7104856 239.038071,71.7104856 L234.517759,71.7104856 L234.517759,89.8461972 L225.422672,89.8461972 Z M234.517759,67.1357116 L239.038071,67.1357116 C240.308848,67.1357116 241.388992,66.6909463 242.278536,65.8014025 C243.16808,64.9118586 243.612845,63.8498681 243.612845,62.6153991 L243.612845,58.0950866 C243.612845,56.8243096 243.16808,55.7441655 242.278536,54.8546216 C241.388992,53.9650777 240.308848,53.5203125 239.038071,53.5203125 L234.517759,53.5203125 L234.517759,67.1357116 Z M265.134008,89.8461972 L265.134008,49 L287.844494,49 L287.844494,53.5203125 L274.229095,53.5203125 L274.229095,67.1357116 L283.324182,67.1357116 L283.324182,71.7104856 L274.229095,71.7104856 L274.229095,85.3258847 L287.844494,85.3258847 L287.844494,89.8461972 L265.134008,89.8461972 Z M401.214406,80.7511106 C400.851327,86.814532 397.837815,89.8461972 392.173781,89.8461972 L383.078694,89.8461972 C380.609756,89.8461972 378.476698,88.9566667 376.679457,87.177579 C374.882215,85.3984913 373.983608,83.2563566 373.983608,80.7511106 L373.983608,58.0950866 C373.983608,55.6261485 374.864061,53.4930907 376.624995,51.695849 C378.385929,49.8986074 380.53714,49 383.078694,49 L392.173781,49 C397.874123,49 400.887635,52.0316652 401.214406,58.0950866 L396.694093,58.0950866 C396.331014,55.0452219 394.824258,53.5203125 392.173781,53.5203125 L387.599007,53.5203125 C386.364538,53.5203125 385.302547,53.9650777 384.413003,54.8546216 C383.52346,55.7441655 383.078694,56.8243096 383.078694,58.0950866 L383.078694,80.7511106 C383.078694,81.9855796 383.52346,83.056647 384.413003,83.9643448 C385.302547,84.8720426 386.364538,85.3258847 387.599007,85.3258847 L392.173781,85.3258847 C394.860566,85.3258847 396.367322,83.8009753 396.694093,80.7511106 L401.214406,80.7511106 Z M413.694944,89.8461972 L413.694944,49 L422.79003,49 L422.79003,67.1357116 L431.885117,67.1357116 L431.885117,49 L440.925742,49 L440.925742,89.8461972 L431.885117,89.8461972 L431.885117,71.7104856 L422.79003,71.7104856 L422.79003,89.8461972 L413.694944,89.8461972 Z M462.501367,49 L471.596453,49 C474.065391,49 476.189372,49.8986074 477.96846,51.695849 C479.747548,53.4930907 480.637078,55.6261485 480.637078,58.0950866 L480.637078,80.7511106 C480.637078,83.2200487 479.747548,85.3531065 477.96846,87.1503482 C476.189372,88.9475899 474.065391,89.8461972 471.596453,89.8461972 L462.501367,89.8461972 C460.032429,89.8461972 457.899371,88.9566667 456.102129,87.177579 C454.304887,85.3984913 453.40628,83.2563566 453.40628,80.7511106 L453.40628,58.0950866 C453.40628,55.5898406 454.304887,53.4477059 456.102129,51.6686182 C457.899371,49.8895305 460.032429,49 462.501367,49 Z M462.501367,58.0950866 L462.501367,80.7511106 C462.501367,81.9855796 462.946132,83.056647 463.835676,83.9643448 C464.72522,84.8720426 465.78721,85.3258847 467.021679,85.3258847 C468.292456,85.3258847 469.3726,84.8720426 470.262144,83.9643448 C471.151688,83.056647 471.596453,81.9855796 471.596453,80.7511106 L471.596453,58.0950866 C471.596453,56.8243096 471.151688,55.7441655 470.262144,54.8546216 C469.3726,53.9650777 468.292456,53.5203125 467.021679,53.5203125 C465.78721,53.5203125 464.72522,53.9650777 463.835676,54.8546216 C462.946132,55.7441655 462.501367,56.8243096 462.501367,58.0950866 Z M502.212703,49 L511.307789,49 C513.776727,49 515.900708,49.8986074 517.679796,51.695849 C519.458884,53.4930907 520.348414,55.6261485 520.348414,58.0950866 L520.348414,80.7511106 C520.348414,83.2200487 519.458884,85.3531065 517.679796,87.1503482 C515.900708,88.9475899 513.776727,89.8461972 511.307789,89.8461972 L502.212703,89.8461972 C499.743765,89.8461972 497.610707,88.9566667 495.813465,87.177579 C494.016223,85.3984913 493.117616,83.2563566 493.117616,80.7511106 L493.117616,58.0950866 C493.117616,55.5898406 494.016223,53.4477059 495.813465,51.6686182 C497.610707,49.8895305 499.743765,49 502.212703,49 Z M502.212703,58.0950866 L502.212703,80.7511106 C502.212703,81.9855796 502.657468,83.056647 503.547012,83.9643448 C504.436556,84.8720426 505.498546,85.3258847 506.733015,85.3258847 C508.003792,85.3258847 509.083936,84.8720426 509.97348,83.9643448 C510.863024,83.056647 511.307789,81.9855796 511.307789,80.7511106 L511.307789,58.0950866 C511.307789,56.8243096 510.863024,55.7441655 509.97348,54.8546216 C509.083936,53.9650777 508.003792,53.5203125 506.733015,53.5203125 C505.498546,53.5203125 504.436556,53.9650777 503.547012,54.8546216 C502.657468,55.7441655 502.212703,56.8243096 502.212703,58.0950866 Z M555.539438,58.0950866 L551.019125,58.0950866 C550.619738,55.0452219 549.185597,53.5203125 546.716659,53.5203125 C545.119111,53.5203125 543.920968,53.9015399 543.122194,54.664006 C542.32342,55.4264722 541.924039,56.5701543 541.924039,58.0950866 C541.924039,59.2206319 542.359727,60.2916992 543.231117,61.3083208 L552.87082,72.0917168 C554.649907,74.088652 555.539438,76.2307867 555.539438,78.5181852 L555.539438,80.7511106 C555.539438,83.2200487 554.649907,85.3531065 552.87082,87.1503482 C551.091732,88.9475899 548.949597,89.8461972 546.444351,89.8461972 L541.924039,89.8461972 C538.910482,89.8461972 536.641272,89.0928193 535.116339,87.586041 C533.591407,86.0792626 532.828952,83.8009753 532.828952,80.7511106 L537.403726,80.7511106 L537.403726,81.513573 C537.403726,82.748042 537.875722,83.6920336 538.819728,84.345576 C539.763734,84.9991184 540.798494,85.3258847 541.924039,85.3258847 C543.521587,85.3258847 544.674346,84.9355805 545.38235,84.1549604 C546.090355,83.3743403 546.444351,82.239735 546.444351,80.7511106 C546.444351,79.5892574 546.008663,78.5181901 545.137273,77.5378764 L535.497571,66.7544804 C533.718483,64.7938531 532.828952,62.6517184 532.828952,60.328012 L532.828952,58.0950866 C532.828952,55.6261485 533.718483,53.4930907 535.497571,51.695849 C537.276658,49.8986074 539.418793,49 541.924039,49 L546.444351,49 C552.144694,49 555.176359,52.0316652 555.539438,58.0950866 Z M567.965514,89.8461972 L567.965514,49 L590.676,49 L590.676,53.5203125 L577.060601,53.5203125 L577.060601,67.1357116 L586.155688,67.1357116 L586.155688,71.7104856 L577.060601,71.7104856 L577.060601,85.3258847 L590.676,85.3258847 L590.676,89.8461972 L567.965514,89.8461972 Z" id="Care-u-choose" fill="url(#linearGradient-4)"></path>
            <path d="M335.461594,49 L344.502219,49 L344.502219,80.7511106 C344.502219,83.2200487 343.612689,85.3531065 341.833601,87.1503482 C340.054513,88.9475899 337.930532,89.8461972 335.461594,89.8461972 L326.366508,89.8461972 C323.89757,89.8461972 321.764512,88.9566667 319.96727,87.177579 C318.170028,85.3984913 317.271421,83.2563566 317.271421,80.7511106 L317.271421,49 L326.366508,49 L326.366508,80.7511106 C326.366508,81.9855796 326.811273,83.056647 327.700817,83.9643448 C328.590361,84.8720426 329.652351,85.3258847 330.88682,85.3258847 C332.157597,85.3258847 333.237741,84.8720426 334.127285,83.9643448 C335.016829,83.056647 335.461594,81.9855796 335.461594,80.7511106 L335.461594,49 Z" id="Path" fill="url(#linearGradient-4)"></path>
        </g>
    </g>
</svg>