<?xml version="1.0" encoding="UTF-8"?>
<svg width="23px" height="23px" viewBox="0 0 23 23" version="1.1" xmlns="http://www.w3.org/2000/svg" xmlns:xlink="http://www.w3.org/1999/xlink">
    <!-- Generator: Sketch 49.1 (51147) - http://www.bohemiancoding.com/sketch -->
    <title>customer_copy</title>
    <desc>Created with Sketch.</desc>
    <defs></defs>
    <g id="Page-1" stroke="none" stroke-width="1" fill="none" fill-rule="evenodd">
        <g id="customer-copy" fill="#FFFFFF" fill-rule="nonzero">
            <path d="M12.5206612,0 C11.1532645,0 10,1.37257377 10,3 C10,4.62742623 11.1532645,6 12.5206612,6 C13.8880579,6 15,4.62742623 15,3 C15,1.37257377 13.8880579,0 12.5206612,0 Z" id="Shape"></path>
            <path d="M14.9653923,6 C14.2367735,6.8124 13.1931934,7.33333333 12.0220994,7.33333333 C10.8510055,7.33333333 9.76322652,6.8124 9.03460773,6 C8.39849724,6.70928889 8,7.63848889 8,8.66666667 L8,9.33333333 C8,9.70182222 8.29653039,10 8.66298343,10 L15.3370166,10 C15.7034696,10 16,9.70182222 16,9.33333333 L16,8.66666667 C16,7.63848889 15.6015028,6.70928889 14.9653923,6 Z" id="Shape"></path>
            <path d="M6.85062908,20.6702317 L3.23716505,13.7503255 C2.88825572,13.0821078 2.03907441,12.8096101 1.33865583,13.1410775 L0.3942229,13.5879557 C0.0425718361,13.7545247 -0.100518333,14.162752 0.0749999353,14.4980573 L4.32941528,22.6255776 C4.50436629,22.9607475 4.92994964,23.0941292 5.27876443,22.9298178 L6.21104864,22.4886289 C6.91420895,22.1559424 7.20081473,21.3409779 6.85062908,20.6702317 Z" id="Shape"></path>
            <path d="M22.4498475,11.5206662 C21.8972694,11.1030744 21.1291134,11.1865928 20.6709601,11.7016227 L16.9874054,16.3786508 C16.7313534,16.6570453 16.2462023,16.824082 15.9901503,16.824082 L12.8500996,16.824082 C12.4727149,16.824082 12.1762786,16.5178944 12.1762786,16.1280957 C12.1762786,15.738297 12.4727149,15.4321094 12.8500996,15.4321094 C13.7525705,15.4321094 14.7517123,15.4321094 15.5453835,15.4321094 C16.2865866,15.4321094 16.8930255,14.8057217 16.8930255,14.0401367 C16.8930255,13.2745518 16.2865866,12.6481641 15.5453835,12.6481641 C12.3808507,12.6481641 15.399389,12.6481641 12.0145616,12.6481641 C11.6787292,12.6481641 11.5112622,12.428186 11.2464057,12.1887667 C10.2038249,11.2197217 8.64325549,10.7528541 7.06336989,11.1310995 C6.18614481,11.3411017 5.5945749,11.7071442 4.9946047,12.1979537 L4.97461467,12.1812036 L4,13.0671478 L7.83017817,21 L8.96435366,21 L15.5453835,21 C16.812167,21 18.0250897,20.3736123 18.7797692,19.3296328 L22.7328074,13.4833477 C23.1775292,12.8708333 23.0562415,11.9800636 22.4498475,11.5206662 Z" id="Shape"></path>
        </g>
    </g>
</svg>