<?xml version="1.0" encoding="UTF-8"?>
<svg width="23px" height="23px" viewBox="0 0 23 23" version="1.1" xmlns="http://www.w3.org/2000/svg" xmlns:xlink="http://www.w3.org/1999/xlink">
    <!-- Generator: Sketch 49.1 (51147) - http://www.bohemiancoding.com/sketch -->
    <title>group_8_copy</title>
    <desc>Created with Sketch.</desc>
    <defs></defs>
    <g id="Page-1" stroke="none" stroke-width="1" fill="none" fill-rule="evenodd">
        <g id="Group-8-Copy">
            <path d="M2,0 L21,0 C22.1045695,-2.02906125e-16 23,0.8954305 23,2 L23,21 C23,22.1045695 22.1045695,23 21,23 L2,23 C0.8954305,23 1.3527075e-16,22.1045695 0,21 L0,2 C-1.3527075e-16,0.8954305 0.8954305,2.02906125e-16 2,0 Z M11.5,7 C12.8785245,7 14,5.87848666 14,4.5 C14,3.12151334 12.8784867,2 11.5,2 C10.1214755,2 9,3.12151334 9,4.5 C9,5.87848666 10.1214755,7 11.5,7 Z M7.58588523,13 L15.4141148,13 C15.7376781,13 16,12.742107 16,12.4240065 C16,9.98457476 13.9813067,8 11.5000183,8 C9.01873,8 7,9.98457476 7,12.4240065 C7,12.742107 7.26232188,13 7.58588523,13 Z M13.9748099,15.8101999 L12.6447337,15.6090766 L12.0499017,14.3550628 C11.8253035,13.8814859 11.1745908,13.8818056 10.9501077,14.3550628 L10.3552758,15.6090766 L9.0251995,15.8101999 C8.52296436,15.8861256 8.32213944,16.5301359 8.68534489,16.8984957 L9.6477606,17.8746212 L9.42055077,19.2529534 C9.33475178,19.7734444 9.86133632,20.1711355 10.3103023,19.9255756 L11.4999663,19.274852 L12.6896303,19.9255756 C13.1349477,20.1691774 13.6658337,19.7773206 13.5793818,19.2529534 L13.352172,17.8746212 L14.3145877,16.8984957 C14.678062,16.5298562 14.4767378,15.8860857 13.9748099,15.8101999 Z M6.47477032,15.810179 L5.14469021,15.6090546 L4.54985651,14.3550346 C4.32525763,13.8815353 3.67454305,13.881775 3.45005939,14.3550346 L2.85526409,15.6090546 L1.52518398,15.810179 C1.02294739,15.8861051 0.822160295,16.5301186 1.18532839,16.8984802 L2.14774689,17.8746106 L1.92053639,19.2529496 C1.83473716,19.7734433 2.36132322,20.1711364 2.81029055,19.9255753 L3.99995795,19.2748084 L5.18962535,19.9255753 C5.6349441,20.1691783 6.16583164,19.7773195 6.07937951,19.2529496 L5.85216901,17.8746106 L6.81462591,16.8984802 C7.17806285,16.5298388 6.97669966,15.8860651 6.47477032,15.810179 Z M21.4747499,15.811116 L20.1446747,15.6100366 L19.5498817,14.3562971 C19.3656483,13.9679219 18.9590444,14.0006827 18.9999852,14.0006827 C18.7665921,14.0006827 18.5534007,14.1385577 18.4500886,14.3562971 L17.8552572,15.6100366 L16.525182,15.811116 C16.0229473,15.8870252 15.822161,16.5308946 16.1853277,16.8991738 L17.1478194,17.8750859 L16.9206098,19.2531167 C16.8348109,19.7734939 17.3613565,20.1710981 17.8103606,19.9255919 L19.0000236,19.2749706 L20.1896865,19.9255919 C20.6350036,20.1691404 21.1658892,19.7773693 21.0794374,19.2531167 L20.8522277,17.8750859 L21.814681,16.8991738 C22.1780014,16.5306948 21.9767542,15.8869852 21.4747499,15.811116 Z" id="Combined-Shape" fill="#FFFFFF"></path>
            <g id="customer-(1)" transform="translate(2.000000, 3.000000)"></g>
        </g>
    </g>
</svg>