<?xml version="1.0" encoding="UTF-8"?>
<svg width="593px" height="591px" viewBox="0 0 593 591" version="1.1" xmlns="http://www.w3.org/2000/svg" xmlns:xlink="http://www.w3.org/1999/xlink">
    <!-- Generator: Sketch 49.1 (51147) - http://www.bohemiancoding.com/sketch -->
    <title>pencil</title>
    <desc>Created with Sketch.</desc>
    <defs></defs>
    <g id="home_page" stroke="none" stroke-width="1" fill="none" fill-rule="evenodd">
        <g id="pencil" fill="#4A4A4A">
            <path d="M400.133947,86.8447483 L505.0905,191.801302 L167.667185,527.029344 L6.83685694,590.502623 C5.65421663,590.969363 4.33818716,590.968043 3.15648546,590.498931 C0.589903838,589.48005 -0.664754857,586.573457 0.354126831,584.006876 L65.9047759,418.883591 L400.133947,86.8447483 Z M418.754306,68.3464148 L475.852004,11.6228991 C491.487826,-3.91045492 516.742739,-3.8689428 532.327411,11.7157291 L580.713321,60.101639 C580.744091,60.1324085 580.77481,60.1632282 580.805479,60.1940979 C596.375387,75.8659669 596.292731,101.192431 580.620862,116.762339 L521.13493,175.861256 L523.702039,173.294147 L418.754306,68.3464148 Z M30.0920305,537.286495 C53.7344968,531.355518 60.0219815,541.826883 54.0769591,563.859296 L162.295355,520.936387 L162.295355,481.586411 L105.44325,486.385305 L110.056104,428.524288 L70.5558645,428.524288 L30.0920305,537.286495 Z" id="Combined-Shape"></path>
        </g>
    </g>
</svg>