<?xml version="1.0" encoding="UTF-8"?>
<svg width="23px" height="26px" viewBox="0 0 23 26" version="1.1" xmlns="http://www.w3.org/2000/svg" xmlns:xlink="http://www.w3.org/1999/xlink">
    <!-- Generator: Sketch 49.1 (51147) - http://www.bohemiancoding.com/sketch -->
    <title>receipt_copy</title>
    <desc>Created with Sketch.</desc>
    <defs></defs>
    <g id="Page-1" stroke="none" stroke-width="1" fill="none" fill-rule="evenodd">
        <g id="receipt-copy" fill="#FFFFFF" fill-rule="nonzero">
            <path d="M22.54,19.5844156 C22.2859668,19.5844156 22.08,19.7893778 22.08,20.0426716 L22.08,25.0834879 L0.92,25.0834879 L0.92,20.0426716 C0.92,19.7893778 0.714033217,19.5844156 0.46,19.5844156 C0.205966783,19.5844156 0,19.7893778 0,20.0426716 L0,25.541744 C0,25.7948141 0.205966783,26 0.46,26 L22.54,26 C22.7940332,26 23,25.7948141 23,25.541744 L23,20.0426716 C23,19.7893778 22.7940332,19.5844156 22.54,19.5844156 Z" id="Shape"></path>
            <path d="M18.1210891,1.57669481 L16.1031777,0 L14.087066,1.57669481 C13.9187942,1.70845266 13.6794343,1.70845266 13.5111626,1.57669481 L11.4968505,0 L9.48163863,1.57669481 C9.31336686,1.70845266 9.07400702,1.70845266 8.90573525,1.57669481 L6.89277298,0 L4.878011,1.57669481 C4.70973924,1.70845266 4.47060434,1.70845266 4.30210763,1.57669481 L2.74626866,0.360299428 L2.74626866,23.2987013 L20.2537313,23.2987013 L20.2537313,0.35941952 L18.6960927,1.57581496 C18.5280459,1.70713286 18.289136,1.70713286 18.1210891,1.57581496 L18.1210891,1.57669481 Z M6.89277298,15.6404694 L5.04988217,15.6404694 C4.79544984,15.6404694 4.58915947,15.4387633 4.58915947,15.1899851 C4.58915947,14.940987 4.79544984,14.7395009 5.04988217,14.7395009 L6.89277298,14.7395009 C7.1472053,14.7395009 7.35349568,14.940987 7.35349568,15.1899851 C7.35349568,15.4387633 7.1472053,15.6404694 6.89277298,15.6404694 Z M6.89277298,12.937564 L5.04988217,12.937564 C4.79544984,12.937564 4.58915947,12.7358579 4.58915947,12.4870797 C4.58915947,12.2380816 4.79544984,12.0365955 5.04988217,12.0365955 L6.89277298,12.0365955 C7.1472053,12.0365955 7.35349568,12.2380816 7.35349568,12.4870797 C7.35349568,12.7358579 7.1472053,12.937564 6.89277298,12.937564 Z M6.89277298,10.2346586 L5.04988217,10.2346586 C4.79544984,10.2346586 4.58915947,10.0329525 4.58915947,9.78417435 C4.58915947,9.53517623 4.79544984,9.33369012 5.04988217,9.33369012 L6.89277298,9.33369012 C7.1472053,9.33369012 7.35349568,9.53517623 7.35349568,9.78417435 C7.35349568,10.0329525 7.1472053,10.2346586 6.89277298,10.2346586 Z M17.9501178,15.6404694 L8.73566379,15.6404694 C8.48123146,15.6404694 8.27494108,15.4387633 8.27494108,15.1899851 C8.27494108,14.940987 8.48123146,14.7395009 8.73566379,14.7395009 L17.9501178,14.7395009 C18.2045502,14.7395009 18.4108405,14.940987 18.4108405,15.1899851 C18.4108405,15.4387633 18.2045502,15.6404694 17.9501178,15.6404694 Z M17.9501178,12.937564 L8.73566379,12.937564 C8.48123146,12.937564 8.27494108,12.7358579 8.27494108,12.4870797 C8.27494108,12.2380816 8.48123146,12.0365955 8.73566379,12.0365955 L17.9501178,12.0365955 C18.2045502,12.0365955 18.4108405,12.2380816 18.4108405,12.4870797 C18.4108405,12.7358579 18.2045502,12.937564 17.9501178,12.937564 Z M17.9501178,10.2346586 L8.73566379,10.2346586 C8.48123146,10.2346586 8.27494108,10.0329525 8.27494108,9.78417435 C8.27494108,9.53517623 8.48123146,9.33369012 8.73566379,9.33369012 L17.9501178,9.33369012 C18.2045502,9.33369012 18.4108405,9.53517623 18.4108405,9.78417435 C18.4108405,10.0329525 18.2045502,10.2346586 17.9501178,10.2346586 Z" id="Shape"></path>
        </g>
    </g>
</svg>