<?xml version="1.0" encoding="UTF-8"?>
<svg width="29px" height="15px" viewBox="0 0 29 15" version="1.1" xmlns="http://www.w3.org/2000/svg" xmlns:xlink="http://www.w3.org/1999/xlink">
    <!-- Generator: Sketch 49.1 (51147) - http://www.bohemiancoding.com/sketch -->
    <title>speedometer_copy</title>
    <desc>Created with Sketch.</desc>
    <defs></defs>
    <g id="Page-1" stroke="none" stroke-width="1" fill="none" fill-rule="evenodd">
        <g id="speedometer-copy" fill="#FFFFFF" fill-rule="nonzero">
            <path d="M12.1383592,11 C10.9090046,12.2702687 11.0610708,13.5970731 11,15 L14,15 L12.1383592,11 Z" id="Shape"></path>
            <path d="M14,11.0664627 L16.164844,15 L17.992804,15 C17.9958339,14.4845407 18,14.1309525 18,14.0421165 C18,12.1068618 16.0440278,10.6686321 14,11.0664627 Z" id="Shape"></path>
            <path d="" id="Shape"></path>
            <path d="M28.9418181,11.642822 C28.9405766,11.6372965 29.111895,11.642822 25.3581429,11.642822 C24.2328685,11.642822 24.23411,9.9834591 25.3581429,9.9834591 L28.5262912,9.9834591 C27.7897641,7.66414984 26.4381935,5.55187244 24.6005113,3.86643635 C21.8035528,6.56579322 21.905528,6.57995222 21.4391022,6.57995222 C20.681116,6.57995222 20.3044284,5.67878522 20.8412614,5.16008324 L23.2891987,2.79777905 C20.9893472,1.13565343 18.2267942,0.160756185 15.3544626,0 L15.3544626,3.41662988 C15.3544626,4.51481384 13.6542254,4.51377779 13.6542254,3.41662988 L13.6542254,0 C10.7776375,0.161446866 8.00994134,1.13876152 5.70760695,2.80623989 L8.14703149,5.1602559 C8.68581537,5.68085726 8.30487142,6.57995222 7.54972274,6.57995222 C7.08347431,6.57995222 7.1859816,6.56631125 4.3980678,3.87576057 C2.5660608,5.55964264 1.21785976,7.66881195 0.482574075,9.9834591 L3.63884014,9.9834591 C4.76446917,9.9834591 4.76269571,11.6429947 3.63884014,11.6429947 L0.0672245982,11.6429947 C-0.132646842,12.5534859 0.127877662,13.3919735 0.653715128,13.9975287 C1.76639775,15.2796066 2.55790281,14.9662098 9.68393107,14.9662098 C9.69882832,13.6934561 9.59667575,11.8230899 11.5634673,10.3481391 L10.2636823,7.86772829 C9.75256484,6.89127703 11.2633942,6.13394448 11.777172,7.11160445 L13.0737647,9.58459043 C16.1652986,8.65061606 19.3126972,10.8989578 19.3126972,14.02412 C19.3126972,14.1116639 19.3267077,14.4595948 19.3391221,14.9662098 L26.2092369,14.9662098 C27.9896356,14.9662098 29.2959825,13.4080318 28.9418181,11.642822 Z" id="Shape"></path>
        </g>
    </g>
</svg>