<?xml version="1.0" encoding="UTF-8"?>
<svg width="23px" height="23px" viewBox="0 0 23 23" version="1.1" xmlns="http://www.w3.org/2000/svg" xmlns:xlink="http://www.w3.org/1999/xlink">
    <!-- Generator: Sketch 49.1 (51147) - http://www.bohemiancoding.com/sketch -->
    <title>user_account_box_copy</title>
    <desc>Created with Sketch.</desc>
    <defs></defs>
    <g id="Page-1" stroke="none" stroke-width="1" fill="none" fill-rule="evenodd">
        <g id="user-account-box-copy" fill="#FFFFFF" fill-rule="nonzero">
            <path d="M0,2.55555556 L0,20.4444444 C0,21.85 1.15,23 2.55555556,23 L20.4444444,23 C21.85,23 23,21.85 23,20.4444444 L23,2.55555556 C23,1.15 21.85,0 20.4444444,0 L2.55555556,0 C1.15,0 0,1.15 0,2.55555556 Z M15.3333333,7.66666667 C15.3333333,9.83888889 13.6722222,11.5 11.5,11.5 C9.32777778,11.5 7.66666667,9.83888889 7.66666667,7.66666667 C7.66666667,5.49444444 9.32777778,3.83333333 11.5,3.83333333 C13.6722222,3.83333333 15.3333333,5.49444444 15.3333333,7.66666667 Z M3.83333333,17.8888889 C3.83333333,15.3333333 8.94444444,13.9277778 11.5,13.9277778 C14.0555556,13.9277778 19.1666667,15.3333333 19.1666667,17.8888889 L19.1666667,19.1666667 L3.83333333,19.1666667 L3.83333333,17.8888889 Z" id="Shape"></path>
        </g>
    </g>
</svg>